# xmcd
#
# Track frame offsets:
#	180
#	19894
#	42714
#	54597
#	79417
#	88292
#	104365
#	121803
#	133799
#	149139
#
# Disc length: 2140 seconds
#
# Revision: 0
# Processed by: cddbd v1.5.1PL0 Copyright (c) Steve Scherf et al.
# Submitted via: audiograbber 1.83.01
#
DISCID=99085a0a
DTITLE=Lightnin' Hopkins - BRAND NEW CAR
DYEAR=1900
DGENRE=Blues
TTITLE0=guitar lightnin'
TTITLE1=i'll be gone
TTITLE2=talk of the town
TTITLE3=brand new car
TTITLE4=bunion stew
TTITLE5=go down old hannah
TTITLE6=hear my black dog bark
TTITLE7=shining moon
TTITLE8=ball of twine
TTITLE9=you got work to get
EXTD=
EXTT0=
EXTT1=
EXTT2=
EXTT3=
EXTT4=
EXTT5=
EXTT6=
EXTT7=
EXTT8=
EXTT9=
PLAYORDER=
